<svg version="1.1" id="Layer_1" xmlns="http://www.w3.org/2000/svg" xmlns:xlink="http://www.w3.org/1999/xlink" x="0px" y="0px"
	 viewBox="0 0 69.9 61.6" style="enable-background:new 0 0 69.9 61.6;" xml:space="preserve">
<g>
	<g>
		<path class="st0" d="M55.6,36H5.8c-3,0-5.4-2.4-5.4-5.4s2.4-5.4,5.4-5.4h49.8c3,0,5.4,2.4,5.4,5.4S58.6,36,55.6,36z"/>
	</g>
	<g>
		<path class="st0" d="M39,60.9c-1.4,0-2.8-0.5-3.8-1.6c-2.1-2.1-2.1-5.5,0-7.6l21.1-21.1L35.2,9.5c-2.1-2.1-2.1-5.5,0-7.6
			c2.1-2.1,5.5-2.1,7.6,0l24.9,24.9c1,1,1.6,2.4,1.6,3.8c0,1.4-0.6,2.8-1.6,3.8L42.8,59.3C41.8,60.4,40.4,60.9,39,60.9z"/>
	</g>
</g>
</svg>
