<svg version="1.1" id="Layer_1" xmlns="http://www.w3.org/2000/svg" xmlns:xlink="http://www.w3.org/1999/xlink" x="0px" y="0px"
	 viewBox="0 0 99.1 99.1" style="enable-background:new 0 0 99.1 99.1;" xml:space="preserve">
	<g>
		<g>
			<path class="st0" d="M49.5,98.5c-27,0-49-22-49-49s22-49,49-49s49,22,49,49S76.4,98.5,49.5,98.5z M49.5,8.2
				C26.6,8.2,8,26.8,8,49.6S26.6,91,49.5,91s41.4-18.6,41.4-41.4S72.3,8.2,49.5,8.2z"/>
		</g>
		<g>
			<path class="st0" d="M49.5,66.1c-2.1,0-3.8-1.7-3.8-3.8V31.8c0-2.1,1.7-3.8,3.8-3.8s3.8,1.7,3.8,3.8v30.6
				C53.2,64.4,51.5,66.1,49.5,66.1z"/>
		</g>
		<g>
			<path class="st0" d="M49.5,71.2L49.5,71.2c-1,0-2-0.4-2.7-1.1L31.5,54.8c-1.5-1.5-1.5-3.9,0-5.3c1.5-1.5,3.9-1.5,5.3,0l12.6,12.6
				l12.6-12.6c1.5-1.5,3.9-1.5,5.3,0c1.5,1.5,1.5,3.9,0,5.3L52.1,70.1C51.4,70.8,50.5,71.2,49.5,71.2z"/>
		</g>
	</g>
</svg>
