<svg version="1.1" id="Layer_1" xmlns="http://www.w3.org/2000/svg" xmlns:xlink="http://www.w3.org/1999/xlink" x="0px" y="0px"
	 viewBox="0 0 92.39 92.39" style="enable-background:new 0 0 92.39 92.39;" xml:space="preserve">
<g>
	<g>
		<path class="st0" d="M29.07,19.79c-1.93,0-3.49-1.56-3.49-3.49V3.49c0-1.93,1.56-3.49,3.49-3.49s3.49,1.56,3.49,3.49V16.3
			C32.56,18.23,31,19.79,29.07,19.79z"/>
	</g>
	<g>
		<path class="st0" d="M63.32,19.79c-1.93,0-3.49-1.56-3.49-3.49V3.49C59.83,1.56,61.4,0,63.32,0s3.49,1.56,3.49,3.49V16.3
			C66.81,18.23,65.25,19.79,63.32,19.79z"/>
	</g>
	<g>
		<path class="st0" d="M82.58,37.26H9.81c-1.93,0-3.49-1.56-3.49-3.49s1.56-3.49,3.49-3.49h72.77c1.93,0,3.49,1.56,3.49,3.49
			S84.51,37.26,82.58,37.26z"/>
	</g>
	<g>
		<path class="st0" d="M63.32,92.39H29.07c-15.82,0-24.89-9.05-24.89-24.84v-36.3c0-15.79,9.07-24.84,24.89-24.84h34.25
			c15.82,0,24.89,9.05,24.89,24.84v36.3C88.21,83.34,79.14,92.39,63.32,92.39z M29.07,13.38c-12.06,0-17.92,5.84-17.92,17.87v36.3
			c0,12.02,5.86,17.87,17.92,17.87h34.25c12.06,0,17.92-5.84,17.92-17.87v-36.3c0-12.02-5.86-17.87-17.92-17.87H29.07z"/>
	</g>
	<g>
		<path class="st0" d="M62.05,56.95c-1.93,0-3.51-1.56-3.51-3.49s1.54-3.49,3.47-3.49h0.04c1.93,0,3.49,1.56,3.49,3.49
			S63.98,56.95,62.05,56.95z"/>
	</g>
	<g>
		<path class="st0" d="M62.05,69.76c-1.93,0-3.51-1.56-3.51-3.49c0-1.93,1.54-3.49,3.47-3.49h0.04c1.93,0,3.49,1.56,3.49,3.49
			C65.54,68.2,63.98,69.76,62.05,69.76z"/>
	</g>
	<g>
		<path class="st0" d="M46.22,56.95c-1.93,0-3.51-1.56-3.51-3.49s1.54-3.49,3.47-3.49h0.04c1.93,0,3.49,1.56,3.49,3.49
			S48.14,56.95,46.22,56.95z"/>
	</g>
	<g>
		<path class="st0" d="M46.22,69.76c-1.93,0-3.51-1.56-3.51-3.49c0-1.93,1.54-3.49,3.47-3.49h0.04c1.93,0,3.49,1.56,3.49,3.49
			C49.7,68.2,48.14,69.76,46.22,69.76z"/>
	</g>
	<g>
		<path class="st0" d="M30.37,56.95c-1.93,0-3.51-1.56-3.51-3.49s1.54-3.49,3.47-3.49h0.04c1.93,0,3.49,1.56,3.49,3.49
			S32.3,56.95,30.37,56.95z"/>
	</g>
	<g>
		<path class="st0" d="M30.37,69.76c-1.93,0-3.51-1.56-3.51-3.49c0-1.93,1.54-3.49,3.47-3.49h0.04c1.93,0,3.49,1.56,3.49,3.49
			C33.86,68.2,32.3,69.76,30.37,69.76z"/>
	</g>
</g>
</svg>
