<svg version="1.1" id="Layer_1" xmlns="http://www.w3.org/2000/svg" xmlns:xlink="http://www.w3.org/1999/xlink" x="0px" y="0px"
	 viewBox="0 0 96.7 100" style="enable-background:new 0 0 96.7 100;" xml:space="preserve">
<g>
	<g>
		<path class="st0" d="M47.4,49.1c-2.7,0-5.3-0.5-7.4-1.4L11,34.8c-7.3-3.2-8.3-7.6-8.3-9.9S3.8,18.2,11,15L39.9,2.1
			c4.2-1.9,10.6-1.9,14.8,0L83.7,15c7.3,3.2,8.3,7.6,8.3,9.9s-1.1,6.7-8.3,9.9L54.8,47.7C52.6,48.6,50,49.1,47.4,49.1z M47.4,7.7
			c-1.7,0-3.4,0.3-4.5,0.8L13.9,21.4c-3.3,1.5-4.2,2.9-4.2,3.5c0,0.6,0.9,2.1,4.2,3.5l28.9,12.8c2.4,1.1,6.7,1.1,9.1,0l28.9-12.8
			c3.3-1.5,4.2-2.9,4.2-3.5c0-0.6-0.9-2.1-4.2-3.5L51.9,8.6c0,0,0,0,0,0C50.7,8,49,7.7,47.4,7.7z"/>
	</g>
	<g>
		<path class="st0" d="M48.4,74.6c-1.8,0-3.7-0.4-5.4-1.1L9.7,58.7c-5-2.2-8.9-8.3-8.9-13.7c0-1.9,1.6-3.5,3.5-3.5s3.5,1.6,3.5,3.5
			c0,2.7,2.3,6.2,4.8,7.3l33.3,14.8c1.6,0.7,3.5,0.7,5.1,0l33.3-14.8c2.5-1.1,4.8-4.6,4.8-7.3c0-1.9,1.6-3.5,3.5-3.5
			c1.9,0,3.5,1.6,3.5,3.5c0,5.5-3.9,11.5-9,13.8L53.8,73.5C52.1,74.3,50.2,74.6,48.4,74.6z"/>
	</g>
	<g>
		<path class="st0" d="M48.4,99.1c-1.8,0-3.7-0.4-5.4-1.1L9.7,83.2c-5.4-2.4-8.9-7.8-8.9-13.7c0-1.9,1.6-3.5,3.5-3.5
			s3.5,1.6,3.5,3.5c0,3.2,1.9,6,4.8,7.3l33.3,14.8c1.6,0.7,3.5,0.7,5.1,0l33.3-14.8c2.9-1.3,4.8-4.2,4.8-7.3c0-1.9,1.6-3.5,3.5-3.5
			c1.9,0,3.5,1.6,3.5,3.5c0,5.9-3.5,11.3-8.9,13.7L53.8,98C52.1,98.8,50.2,99.1,48.4,99.1z"/>
	</g>
</g>
</svg>
