<svg version="1.1" id="Layer_1" xmlns="http://www.w3.org/2000/svg" xmlns:xlink="http://www.w3.org/1999/xlink" x="0px" y="0px"
	 viewBox="0 0 100 100" style="enable-background:new 0 0 100 100;" xml:space="preserve">
<g>
	<g>
		<path class="st0" d="M50.1,99.4c-27.2,0-49.3-22.1-49.3-49.3S22.9,0.8,50.1,0.8s49.3,22.1,49.3,49.3S77.3,99.4,50.1,99.4z
			 M50.1,7.7c-23.4,0-42.4,19-42.4,42.4s19,42.4,42.4,42.4s42.4-19,42.4-42.4S73.5,7.7,50.1,7.7z"/>
	</g>
	<g>
		<path class="st0" d="M67.2,68.1c-0.6,0-1.2-0.2-1.8-0.5l-14.2-8.5c-3.5-2.1-6.2-6.8-6.2-10.9V29.5c0-1.9,1.5-3.5,3.5-3.5
			c1.9,0,3.5,1.5,3.5,3.5v18.8c0,1.7,1.4,4.1,2.8,4.9l14.2,8.5c1.6,1,2.2,3.1,1.2,4.7C69.5,67.5,68.3,68.1,67.2,68.1z"/>
	</g>
</g>
</svg>
