<svg version="1.1" id="Layer_1" xmlns="http://www.w3.org/2000/svg" xmlns:xlink="http://www.w3.org/1999/xlink" x="0px" y="0px"
	 viewBox="0 0 98.6 98.7" style="enable-background:new 0 0 98.6 98.7;" xml:space="preserve">
<g>
	<g>
		<path class="st0" d="M49.4,98.1c-26.8,0-48.7-21.8-48.7-48.7S22.6,0.7,49.4,0.7s48.7,21.8,48.7,48.7S76.2,98.1,49.4,98.1z
			 M49.4,7.6C26.3,7.6,7.6,26.3,7.6,49.4s18.8,41.8,41.8,41.8s41.8-18.8,41.8-41.8S72.5,7.6,49.4,7.6z"/>
	</g>
	<g>
		<path class="st0" d="M50.5,70.9C38.6,70.9,29,61.3,29,49.4s9.6-21.5,21.5-21.5c5.2,0,10.2,1.9,14.2,5.4c1.4,1.2,1.6,3.4,0.3,4.8
			s-3.4,1.6-4.8,0.3c-2.7-2.4-6.2-3.7-9.7-3.7c-8.1,0-14.7,6.6-14.7,14.7s6.6,14.7,14.7,14.7c3.5,0,7-1.3,9.7-3.7
			c1.4-1.2,3.6-1.1,4.8,0.3c1.2,1.4,1.1,3.6-0.3,4.8C60.7,69,55.7,70.9,50.5,70.9z"/>
	</g>
</g>
</svg>
