<svg version="1.1" id="Layer_1" xmlns="http://www.w3.org/2000/svg" xmlns:xlink="http://www.w3.org/1999/xlink" x="0px" y="0px"
	 viewBox="0 0 100 100" style="enable-background:new 0 0 100 100;" xml:space="preserve">
<g>
	<path class="st0" d="M83.7,0.5H16.3C7.5,0.5,0.4,7.6,0.4,16.3v67.4c0,8.8,7.1,15.9,15.9,15.9h25.1V65.9H27.5V50h13.9V37.9
		c0-13.7,8.2-21.3,20.7-21.3c6,0,12.3,1.1,12.3,1.1v13.5h-6.9c-6.8,0-8.9,4.2-8.9,8.6V50h15.2l-2.4,15.9H58.6v33.7h25.1
		c8.8,0,15.9-7.1,15.9-15.9V16.3C99.6,7.6,92.5,0.5,83.7,0.5z"/>
</g>
</svg>
