<svg version="1.1" id="Layer_1" xmlns="http://www.w3.org/2000/svg" xmlns:xlink="http://www.w3.org/1999/xlink" x="0px" y="0px"
	 viewBox="0 0 92.39 92.39" style="enable-background:new 0 0 92.39 92.39;" xml:space="preserve">	
<g>
	<g>
		<path class="st0" d="M59.01,92.4H33.39C9.98,92.4,0,82.41,0,59.01V33.39C0,9.98,9.98,0,33.39,0h21.35c1.93,0,3.5,1.57,3.5,3.5
			s-1.57,3.5-3.5,3.5H33.39c-19.49,0-26.4,6.91-26.4,26.4v25.62c0,19.49,6.91,26.4,26.4,26.4h25.62c19.49,0,26.4-6.91,26.4-26.4
			V37.66c0-1.93,1.57-3.5,3.5-3.5s3.5,1.57,3.5,3.5v21.35C92.4,82.41,82.41,92.4,59.01,92.4z"/>
	</g>
	<g>
		<path class="st0" d="M88.9,41.15H71.82c-14.81,0-20.58-5.77-20.58-20.58V3.49c0-1.41,0.85-2.69,2.16-3.23
			c1.31-0.54,2.81-0.24,3.81,0.76l34.16,34.16c1,1,1.3,2.5,0.76,3.81C91.59,40.3,90.32,41.15,88.9,41.15z M58.23,11.94v8.64
			c0,10.92,2.67,13.58,13.58,13.58h8.64L58.23,11.94z"/>
	</g>
</g>
</svg>
