<svg version="1.1" id="Layer_1" xmlns="http://www.w3.org/2000/svg" xmlns:xlink="http://www.w3.org/1999/xlink" x="0px" y="0px"
	 viewBox="0 0 99.3 99.4" style="enable-background:new 0 0 99.3 99.4;" xml:space="preserve">
<g>
	<g>
		<path class="st0" d="M49.5,98.4c-27,0-49-22-49-49s22-49,49-49s49,22,49,49S76.5,98.4,49.5,98.4z M49.5,6.9
			C26.1,6.9,6.9,26,6.9,49.5s19.1,42.6,42.6,42.6S92.1,73,92.1,49.5S73,6.9,49.5,6.9z"/>
	</g>
	<g>
		<path class="st0" d="M57,74.1H42.1c-2.3,0-4.2-1.9-4.2-4.2v-4c0-2.3,1.8-4.1,4-4.2v-6.3c-2.2-0.1-4-2-4-4.2v-4
			c0-2.3,1.9-4.2,4.2-4.2h10.8c2.3,0,4.2,1.9,4.2,4.2v14.6c2.2,0.1,4,2,4,4.2v4C61.2,72.1,59.3,74.1,57,74.1z M42.3,69.6h14.4V66h-4
			V47.1H42.3v3.6h4V66h-4V69.6z"/>
	</g>
	<g>
		<path class="st0" d="M49.5,41.7c-5.1,0-9.3-4.2-9.3-9.3c0-5.1,4.2-9.3,9.3-9.3c5.1,0,9.3,4.2,9.3,9.3
			C58.8,37.5,54.7,41.7,49.5,41.7z M49.5,27.6c-2.7,0-4.9,2.2-4.9,4.9s2.2,4.9,4.9,4.9s4.9-2.2,4.9-4.9S52.2,27.6,49.5,27.6z"/>
	</g>
</g>
</svg>
