<svg version="1.1" id="Layer_1" xmlns="http://www.w3.org/2000/svg" xmlns:xlink="http://www.w3.org/1999/xlink" x="0px" y="0px"
	 viewBox="0 0 98.9 98.6" style="enable-background:new 0 0 98.9 98.6;" xml:space="preserve">
<g>
	<path class="st0" d="M49.4,0.4c-27,0-48.8,21.9-48.8,48.8c0,27,21.9,48.8,48.8,48.8s48.8-21.8,48.8-48.8
		C98.2,22.3,76.4,0.4,49.4,0.4z M49.4,22.1c4.6,0,8.3,3.7,8.3,8.3s-3.7,8.3-8.3,8.3s-8.3-3.7-8.3-8.3S44.9,22.1,49.4,22.1z
		 M60.5,72.1c0,1.3-1.1,2.4-2.4,2.4H40.8c-1.3,0-2.4-1.1-2.4-2.4v-4.7c0-1.3,1.1-2.4,2.4-2.4h2.4V52.4h-2.4c-1.3,0-2.4-1.1-2.4-2.4
		v-4.7c0-1.3,1.1-2.4,2.4-2.4h12.6c1.3,0,2.4,1.1,2.4,2.4V65h2.4c1.3,0,2.4,1.1,2.4,2.4V72.1z"/>
</g>
</svg>
