<svg version="1.1" id="Layer_1" xmlns="http://www.w3.org/2000/svg" xmlns:xlink="http://www.w3.org/1999/xlink" x="0px" y="0px"
	 viewBox="0 0 100 100" style="enable-background:new 0 0 100 100;" xml:space="preserve">
<g>
	<g>
		<g>
			<path class="st0" d="M40.3,99.7c-8.7,0-19-0.3-24.7-2.6C9.8,94.8,5.3,90.3,3,84.4C0.4,77.9,0.3,66.3,0.4,54c0-1.5,0-2.8,0-3.9
				c0-1.1,0-2.4,0-3.9C0.3,36.9,0.2,22.7,3,15.8C5.3,9.9,9.8,5.4,15.7,3c6.5-2.6,18.1-2.7,30.4-2.5c1.5,0,2.8,0,3.9,0
				c1.1,0,2.4,0,3.9,0C63.2,0.4,77.3,0.3,84.3,3C90.2,5.4,94.7,9.9,97,15.7c2.6,6.5,2.7,18.1,2.5,30.4c0,1.5,0,2.8,0,3.9
				c0,1.1,0,2.5,0,3.9c0.1,12.3,0,23.9-2.5,30.4v0c-2.3,5.8-6.8,10.4-12.7,12.7c-6.5,2.6-18.1,2.7-30.4,2.5c-1.5,0-2.8,0-3.9,0
				c-1.1,0-2.4,0-3.9,0C44.4,99.7,42.4,99.7,40.3,99.7z M50,92.1c1.2,0,2.5,0,4,0c8.2,0.1,21.9,0.2,27.5-2c3.9-1.6,7-4.6,8.5-8.5v0
				c2.2-5.6,2.1-19.3,2-27.5c0-1.5,0-2.9,0-4s0-2.5,0-4c0.1-8.2,0.2-21.9-2-27.5c-1.6-3.9-4.6-7-8.5-8.5c-5.6-2.2-19.4-2.1-27.6-2
				c-1.5,0-2.8,0-3.9,0c-1.2,0-2.5,0-4,0c-8.2-0.1-21.9-0.2-27.5,2c-3.9,1.6-7,4.6-8.5,8.5c-2.2,5.6-2.1,19.4-2,27.6
				c0,1.5,0,2.8,0,3.9c0,1.2,0,2.5,0,4c-0.1,8.2-0.2,21.9,2,27.5c1.6,3.9,4.6,7,8.5,8.5c5.6,2.2,19.4,2.1,27.6,2
				C47.5,92.1,48.9,92.1,50,92.1z"/>
		</g>
		<g>
			<path class="st0" d="M50,75.3c-13.9,0-25.3-11.3-25.3-25.3c0-13.9,11.3-25.3,25.3-25.3s25.3,11.3,25.3,25.3
				C75.3,64,63.9,75.3,50,75.3z M50,32.3c-9.8,0-17.8,8-17.8,17.8c0,9.8,8,17.8,17.8,17.8s17.8-8,17.8-17.8
				C67.8,40.3,59.8,32.3,50,32.3z"/>
		</g>
		<g>
			<path class="st0" d="M77,28.3c-2.9,0-5.3-2.4-5.3-5.3s2.4-5.3,5.3-5.3c2.9,0,5.3,2.4,5.3,5.3S79.9,28.3,77,28.3z M77,20.8
				c-1.2,0-2.2,1-2.2,2.2c0,1.2,1,2.2,2.2,2.2s2.2-1,2.2-2.2C79.3,21.8,78.3,20.8,77,20.8z"/>
		</g>
	</g>
	<circle class="st0" cx="77" cy="23" r="5.3"/>
</g>
</svg>
