<svg version="1.1" id="Layer_1" xmlns="http://www.w3.org/2000/svg" xmlns:xlink="http://www.w3.org/1999/xlink" x="0px" y="0px"
	 viewBox="0 0 100 100" style="enable-background:new 0 0 100 100;" xml:space="preserve">
<g>
	<path class="st0" d="M82.1,0.6H17.9C8.3,0.6,0.6,8.3,0.6,17.9v64.2c0,9.6,7.7,17.3,17.3,17.3h64.2c9.5,0,17.3-7.7,17.3-17.3V17.9
		C99.4,8.3,91.6,0.6,82.1,0.6z M30.5,85.3H15.8V38.1h14.7V85.3z M21.5,31.6c-3.1-0.6-5.7-3-6.5-6.1c-1.7-6.2,3.7-11.8,9.9-10.6
		c3.3,0.7,6,3.4,6.6,6.7C32.6,27.6,27.5,32.7,21.5,31.6z M85.4,85.3H70.7V62.4c0-5.4-0.1-12.5-7.6-12.5c-7.6,0-8.8,6-8.8,12.1v23.3
		H39.7V38.1h14.1v6.5h0.2c2-3.7,6.8-7.6,13.9-7.6c14.8,0,17.6,9.8,17.6,22.5V85.3z"/>
</g>
</svg>
