<svg version="1.1" id="Layer_1" xmlns="http://www.w3.org/2000/svg" xmlns:xlink="http://www.w3.org/1999/xlink" x="0px" y="0px"
	 viewBox="0 0 83.9 100" style="enable-background:new 0 0 83.9 100;" xml:space="preserve">
<g>
	<g>
		<path class="st0" d="M41.9,57.3c-9.4,0-17.1-7.7-17.1-17.1S32.5,23,41.9,23S59,30.7,59,40.1S51.4,57.3,41.9,57.3z M41.9,30
			c-5.6,0-10.2,4.6-10.2,10.2s4.6,10.2,10.2,10.2s10.2-4.6,10.2-10.2S47.5,30,41.9,30z"/>
	</g>
	<g>
		<path class="st0" d="M41.9,99.5c-5.3,0-9.6-4-18.2-12C10.8,75-3.5,55.1,1.8,31.4l0,0C6.7,9.9,25.5,0.3,41.9,0.3l0,0
			c16.4,0,35.2,9.6,40.1,31.2c5.4,23.7-8.9,43.5-21.9,56C51.5,95.5,47.2,99.5,41.9,99.5z M8.6,32.9C4,53.5,16.9,71.2,28.5,82.4
			c6.7,6.3,10.8,10.1,13.4,10.1c2.6,0,6.6-3.8,13.4-10.2C66.9,71.2,79.9,53.5,75.2,33C70.9,14,54.6,7.2,41.9,7.2l0,0
			C29.2,7.2,12.9,14,8.6,32.9L8.6,32.9z"/>
	</g>
</g>
</svg>
