<svg version="1.1" id="Layer_1" xmlns="http://www.w3.org/2000/svg" xmlns:xlink="http://www.w3.org/1999/xlink" x="0px" y="0px"
	 viewBox="0 0 100 86.1" style="enable-background:new 0 0 100 86.1;" xml:space="preserve">
<g>
	<g>
		<path class="st0" d="M76.7,85.7H23.6C11,85.7,0.7,75.4,0.7,62.7V23.6c0-1.8,0.2-3.5,0.5-5c2.3-10.4,11.7-18,22.3-18h53.1
			c10.7,0,20.1,7.5,22.4,18c0.4,1.5,0.6,3.1,0.6,5v39.1C99.7,75.4,89.4,85.7,76.7,85.7z M23.6,6.6C15.7,6.6,8.8,12.2,7.1,20
			c-0.3,1.1-0.4,2.3-0.4,3.6v39.1c0,9.3,7.6,16.9,16.9,16.9h53.1c9.3,0,16.9-7.6,16.9-16.9V23.6c0-1.4-0.1-2.5-0.4-3.5
			c0-0.1,0-0.1,0-0.2c-1.6-7.7-8.6-13.3-16.5-13.3H23.6z"/>
	</g>
	<g>
		<path class="st0" d="M50.2,51c-7.7,0-15.3-2.6-21.6-7.7L2.3,21.6c-0.9-0.7-1.3-1.9-1-3c2.3-10.4,11.7-18,22.4-18h53.1
			c10.7,0,20.1,7.6,22.4,18c0.2,1.1-0.2,2.2-1,2.9L71.8,43.3C65.5,48.4,57.8,51,50.2,51z M7.6,18.2l24.9,20.4
			c10.3,8.5,25.2,8.5,35.5,0l24.8-20.4c-2.2-6.8-8.7-11.6-16-11.6H23.6C16.3,6.6,9.8,11.4,7.6,18.2z"/>
	</g>
	<g>
		<path class="st0" d="M7.3,73.1l-3.8-4.6l25.1-20.6c2.7-2.2,5.6-4,8.7-5.1l2.1,5.6c-2.5,0.9-4.8,2.3-7,4.2L7.3,73.1z"/>
	</g>
	<g>
		<path class="st0" d="M93,73.1L67.9,52.5c-2.1-1.7-4.5-3.1-7-4.2l2.3-5.6c3.1,1.3,6,3,8.6,5.1l25.1,20.6L93,73.1z"/>
	</g>
</g>
</svg>
