<svg version="1.1" id="Layer_1" xmlns="http://www.w3.org/2000/svg" xmlns:xlink="http://www.w3.org/1999/xlink" x="0px" y="0px"
	 viewBox="0 0 98.4 87" style="enable-background:new 0 0 98.4 87;" xml:space="preserve">
<g>
	<g>
		<path class="st0" d="M65.4,86.7c-2,0-3.9-0.4-5.5-1.2L35.7,73.4c-1.5-0.7-4.2-0.7-5.6,0.1l-10.8,6.2c-4.6,2.7-9.4,3-13,0.9
			c-3.6-2.1-5.7-6.4-5.7-11.7V24c0-4.1,2.7-8.7,6.3-10.8L26.8,1.8c3.3-1.9,8.3-2,11.8-0.3l24.2,12.1c1.5,0.7,4.2,0.7,5.6-0.1
			l10.8-6.2c4.6-2.7,9.4-3,13-0.9c3.6,2.1,5.7,6.4,5.7,11.7v44.8c0,4.1-2.7,8.8-6.3,10.8l-20,11.4C69.9,86.2,67.6,86.7,65.4,86.7z
			 M33.1,66.3c2,0,3.9,0.4,5.5,1.2l24.2,12.1c1.5,0.7,4.2,0.7,5.6-0.1l19.9-11.4c1.5-0.9,3-3.4,3-5.2V18.1c0-3-0.9-5.2-2.4-6.1
			c-1.5-0.9-3.9-0.6-6.5,0.9l-10.8,6.2c-3.3,1.9-8.4,2-11.8,0.3L35.7,7.3c-1.5-0.7-4.2-0.7-5.6,0.1L10.1,18.9c-1.6,0.9-3,3.4-3,5.1
			v44.8c0,3,0.9,5.2,2.4,6.1c1.5,0.9,3.9,0.6,6.5-0.9l10.8-6.2C28.6,66.8,30.8,66.3,33.1,66.3z"/>
	</g>
	<g>
		<path class="st0" d="M32.7,69.7c-1.8,0-3.3-1.5-3.3-3.3V6.6c0-1.8,1.5-3.3,3.3-3.3c1.8,0,3.3,1.5,3.3,3.3v59.9
			C36,68.3,34.5,69.7,32.7,69.7z"/>
	</g>
	<g>
		<path class="st0" d="M65.7,83.6c-1.8,0-3.3-1.5-3.3-3.3V18.7c0-1.8,1.5-3.3,3.3-3.3c1.8,0,3.3,1.5,3.3,3.3v61.6
			C69,82.1,67.5,83.6,65.7,83.6z"/>
	</g>
</g>
</svg>
