<svg version="1.1" id="Layer_1" xmlns="http://www.w3.org/2000/svg" xmlns:xlink="http://www.w3.org/1999/xlink" x="0px" y="0px"
	 viewBox="0 0 99.1 66" style="enable-background:new 0 0 99.1 66;" xml:space="preserve">
<g>
	<g>
		<path class="st0" d="M29.8,49.5c-0.1-0.4-0.5-0.7-1-0.6c-0.7,0.2-1.8,0.4-3,0.4c-3.8,0-6.8-2.3-8.1-5.7h7.6c0.4,0,0.7-0.3,0.8-0.6
			l0.4-1.9c0.1-0.5-0.3-1-0.8-1h-8.9c-0.1-1-0.1-1.9,0-2.8h9.7c0.4,0,0.7-0.3,0.8-0.6l0.4-2c0.1-0.5-0.3-1-0.8-1h-9.2
			c1.4-3,4.2-5,7.8-5c1,0,1.9,0.1,2.5,0.3c0.4,0.1,0.8-0.2,0.9-0.6l0.8-2.9c0.1-0.4-0.2-0.9-0.6-1c-0.8-0.2-2.1-0.3-3.5-0.3
			c-6.5,0-11.7,4-13.6,9.6H9.9c-0.4,0-0.8,0.4-0.8,0.8v2c0,0.4,0.4,0.8,0.8,0.8h1.4c-0.1,0.9-0.1,1.9,0,2.8H9.9
			c-0.4,0-0.8,0.4-0.8,0.8v1.9c0,0.4,0.4,0.8,0.8,0.8h2c1.7,6,6.9,10.3,13.8,10.3c1.7,0,3.2-0.3,4.1-0.5c0.4-0.1,0.7-0.5,0.6-0.9
			L29.8,49.5z"/>
	</g>
	<g>
		<path class="st0" d="M81.7,65.6H17.4C8.1,65.6,0.5,58,0.5,48.7V17.4c0-9.3,7.6-16.9,16.9-16.9h64.3c9.3,0,16.9,7.6,16.9,16.9v31.3
			C98.6,58,91,65.6,81.7,65.6z M17.4,5.1c-6.8,0-12.3,5.5-12.3,12.3v31.3c0,6.8,5.5,12.3,12.3,12.3h64.3c6.8,0,12.3-5.5,12.3-12.3
			V17.4c0-6.8-5.5-12.3-12.3-12.3H17.4z"/>
	</g>
	<g>
		<rect x="36.6" y="2.8" class="st0" width="22.6" height="60.4"/>
	</g>
</g>
</svg>
