<svg version="1.1" id="Layer_1" xmlns="http://www.w3.org/2000/svg" xmlns:xlink="http://www.w3.org/1999/xlink" x="0px" y="0px"
	 viewBox="0 0 92.82 92.82" style="enable-background:new 0 0 92.82 92.82;" xml:space="preserve">
<g>
	<g>
		<path class="st0" d="M46.41,7c21.73,0,39.41,17.68,39.41,39.41S68.14,85.82,46.41,85.82C24.68,85.82,7,68.14,7,46.41
			S24.68,7,46.41,7 M46.41,0C20.88,0,0,20.88,0,46.41s20.88,46.41,46.41,46.41c25.53,0,46.41-20.88,46.41-46.41S71.93,0,46.41,0
			L46.41,0z"/>
	</g>
	<g>
		<path class="st0" d="M39.82,63.04c-0.9,0-1.79-0.34-2.47-1.03L24.21,48.88c-1.37-1.37-1.37-3.58,0-4.95
			c1.37-1.37,3.58-1.37,4.95,0L39.82,54.6l23.84-23.8c1.37-1.37,3.58-1.36,4.95,0c1.37,1.37,1.36,3.58,0,4.95L42.29,62.02
			C41.61,62.7,40.71,63.04,39.82,63.04z"/>
	</g>
</g>
</svg>
