<svg version="1.1" id="Layer_1" xmlns="http://www.w3.org/2000/svg" xmlns:xlink="http://www.w3.org/1999/xlink" x="0px" y="0px"
	 viewBox="0 0 100 100" style="enable-background:new 0 0 100 100;" xml:space="preserve">
<g>
	<path class="st0" d="M75.1,99.4c-5.2,0-10.7-1.2-16.4-3.6c-5.5-2.4-11.1-5.6-16.5-9.5c-5.4-3.9-10.6-8.4-15.5-13.2
		c-4.9-4.9-9.3-10.1-13.2-15.5c-4-5.5-7.1-11-9.4-16.4c-2.4-5.7-3.6-11.2-3.6-16.4c0-3.6,0.6-7,1.9-10.2c1.3-3.3,3.4-6.3,6.1-8.9
		c3.5-3.5,7.6-5.3,11.9-5.3c1.8,0,3.6,0.4,5.2,1.2c1.8,0.8,3.3,2.1,4.4,3.7l10.7,15c1,1.3,1.7,2.6,2.2,3.9c0.6,1.4,0.9,2.8,0.9,4.1
		c0,1.7-0.5,3.4-1.4,5c-0.7,1.3-1.8,2.6-3.1,4l-3.1,3.3c0,0.1,0.1,0.2,0.1,0.3c0.5,1,1.6,2.6,3.8,5.1c2.2,2.6,4.4,4.9,6.5,7.1
		c2.8,2.7,5,4.8,7.1,6.5c2.5,2.1,4.2,3.2,5.2,3.7c0.1,0,0.2,0.1,0.3,0.1l3.2-3.1c1.4-1.4,2.7-2.4,4-3.1c2.8-1.7,5.9-1.9,9.1-0.6
		c1.2,0.5,2.5,1.2,3.9,2.1l15.3,10.9c1.7,1.2,2.9,2.6,3.7,4.4l0,0.1c0.7,1.7,1,3.3,1,4.9c0,2.2-0.5,4.4-1.5,6.5
		c-1,2.1-2.2,3.9-3.7,5.5c-2.6,2.9-5.5,5-8.8,6.3C82.2,98.8,78.7,99.4,75.1,99.4z M20.5,7.4c-2.5,0-4.9,1.1-7.1,3.3
		c-2.1,2-3.6,4.1-4.5,6.5c-0.9,2.4-1.4,4.9-1.4,7.6c0,4.3,1,8.9,3,13.7c2.1,4.9,5,9.9,8.6,15c3.7,5.1,7.9,10,12.5,14.6
		c4.6,4.6,9.5,8.8,14.7,12.5c5,3.6,10.1,6.6,15.1,8.7c4.8,2,9.4,3.1,13.6,3.1c2.7,0,5.3-0.5,7.6-1.5c2.3-1,4.4-2.4,6.3-4.6
		c1-1.2,1.9-2.4,2.6-3.8c0.5-1.2,0.8-2.3,0.8-3.5c0-0.7-0.1-1.4-0.5-2.2c-0.2-0.4-0.5-0.9-1.3-1.4L75.4,64.6
		c-0.9-0.6-1.8-1.1-2.5-1.4c-1.2-0.5-2-0.5-3,0.1l-0.2,0.1c-0.7,0.4-1.5,1-2.5,2l-3.5,3.5c-1.2,1.2-2.7,1.8-4.3,1.8
		c-0.9,0-1.6-0.1-2.4-0.4l-0.2-0.1c-0.2-0.1-0.3-0.1-0.5-0.2c-0.1,0-0.2-0.1-0.3-0.1l-0.3-0.2c-1.9-1-4.1-2.6-6.6-4.6
		c-2.2-1.9-4.6-4-7.5-6.9c-2.3-2.3-4.5-4.7-6.9-7.5c-2.2-2.6-3.7-4.7-4.7-6.5L30,43.8l-0.1-0.3c0-0.1-0.1-0.1-0.1-0.2
		c-0.1-0.2-0.2-0.4-0.2-0.6l-0.1-0.4c-0.2-0.7-0.2-1.3-0.2-1.9c0-1.7,0.6-3.1,1.7-4.3l3.5-3.6c0.9-0.9,1.6-1.8,2.1-2.6l0.1-0.1
		c0.3-0.5,0.5-1,0.5-1.5c0-0.2,0-0.7-0.4-1.4c-0.3-0.8-0.8-1.7-1.5-2.6L24.5,9.4c-0.5-0.7-1-1.1-1.7-1.4C22.1,7.6,21.3,7.4,20.5,7.4
		z"/>
</g>
</svg>
