<svg version="1.1" id="Layer_1" xmlns="http://www.w3.org/2000/svg" xmlns:xlink="http://www.w3.org/1999/xlink" x="0px" y="0px"
	 viewBox="0 0 100 100" style="enable-background:new 0 0 100 100;" xml:space="preserve">
<g>
	<g>
		<path class="st0" d="M40.9,80.2c-21.9,0-39.8-17.9-39.8-39.8c0-22,17.9-39.8,39.8-39.8c22,0,39.8,17.9,39.8,39.8
			C80.7,62.3,62.8,80.2,40.9,80.2z M40.9,8.1C23.1,8.1,8.6,22.6,8.6,40.4c0,17.8,14.5,32.3,32.3,32.3s32.3-14.5,32.3-32.3
			C73.2,22.6,58.7,8.1,40.9,8.1z"/>
	</g>
	<g>
		<path class="st0" d="M94.1,99.5c-1.3,0-2.6-0.5-3.6-1.5L64.1,71.6c-2-2-2-5.2,0-7.2c2-2,5.2-2,7.2,0l26.4,26.4c2,2,2,5.2,0,7.2
			C96.7,99,95.4,99.5,94.1,99.5z"/>
	</g>
</g>
</svg>
