<svg version="1.1" id="Layer_1" xmlns="http://www.w3.org/2000/svg" xmlns:xlink="http://www.w3.org/1999/xlink" x="0px" y="0px"
	 viewBox="0 0 448 512" style="enable-background:new 0 0 448 512;" xml:space="preserve">
<path class="st0" d="M448,209.91c-44.03,0.11-86.97-13.62-122.77-39.25v178.72c-0.03,89.77-72.84,162.52-162.61,162.49
	S0.1,439.03,0.13,349.26s72.84-162.52,162.61-162.49c7.45,0,14.88,0.52,22.26,1.54v89.89c-39.31-12.37-81.21,9.48-93.57,48.79
	s9.48,81.21,48.79,93.57s81.21-9.48,93.57-48.79c2.28-7.25,3.44-14.8,3.44-22.39V0h88c-0.06,7.43,0.56,14.85,1.86,22.17l0,0
	c6.18,33.01,25.68,62.03,53.91,80.22c19.87,13.14,43.17,20.15,67,20.14V209.91z"/>
</svg>
