<svg version="1.1" id="Layer_1" xmlns="http://www.w3.org/2000/svg" xmlns:xlink="http://www.w3.org/1999/xlink" x="0px" y="0px"
	 viewBox="0 0 98.6 98.3" style="enable-background:new 0 0 98.6 98.3;" xml:space="preserve">
<g>
	<g>
		<path class="st0" d="M64.8,98.2H33.7c-23.3,0-33.6-10.4-33.6-33.6V64c0-21.3,8.4-31.6,27.2-33.3c2.1-0.2,3.9,1.3,4.1,3.4
			c0.2,2.1-1.3,3.9-3.4,4.1C13.2,39.5,7.7,46.5,7.7,64v0.6c0,19.3,6.8,26.1,26.1,26.1h31.1c19.3,0,26.1-6.8,26.1-26.1V64
			c0-17.5-5.6-24.5-20.7-25.9c-2.1-0.2-3.6-2-3.4-4.1c0.2-2.1,2-3.6,4.1-3.4C89.9,32.2,98.4,42.5,98.4,64v0.6
			C98.4,87.8,88.1,98.2,64.8,98.2z"/>
	</g>
	<g>
		<path class="st0" d="M49.3,67.2c-2.1,0-3.8-1.7-3.8-3.8V9.2c0-2.1,1.7-3.8,3.8-3.8s3.8,1.7,3.8,3.8v54.3
			C53.1,65.5,51.4,67.2,49.3,67.2z"/>
	</g>
	<g>
		<path class="st0" d="M65.3,23.6c-1,0-1.9-0.4-2.7-1.1L49.3,9.2L36,22.5c-1.5,1.5-3.9,1.5-5.4,0c-1.5-1.5-1.5-3.9,0-5.4l16-16
			c1.5-1.5,3.9-1.5,5.4,0l16,16c1.5,1.5,1.5,3.9,0,5.4C67.2,23.2,66.2,23.6,65.3,23.6z"/>
	</g>
</g>
</svg>
