<svg version="1.1" id="Layer_1" xmlns="http://www.w3.org/2000/svg" xmlns:xlink="http://www.w3.org/1999/xlink" x="0px" y="0px"
	 viewBox="0 0 92.39 92.39" style="enable-background:new 0 0 92.39 92.39;" xml:space="preserve">
<g>
	<g>
		<g>
			<path class="st0" d="M63.65,16.17c-4.04,0-7.74,1.52-10.61,4.06c0.77,2.08,1.26,4.29,1.45,6.6c1.98-3.15,5.36-5.22,9.17-5.22
				c6.09,0,11.05,5.29,11.05,11.79s-4.96,11.8-11.05,11.8c-4.86,0-8.99-3.37-10.46-8.04c-0.75,2.18-1.8,4.21-3.09,6.05
				c2.98,4.49,7.95,7.43,13.55,7.43c9.09,0,16.49-7.73,16.49-17.24S72.73,16.17,63.65,16.17z"/>
		</g>
	</g>
	<g>
		<path class="st0" d="M92.21,74.76c-2.78-10.87-11.83-18.85-22.5-19.85c-3.99-0.43-8.07-0.43-12.12,0c-0.81,0.09-1.62,0.2-2.4,0.37
			c2.02,1.39,3.89,3.02,5.59,4.83c0.96-0.05,1.93-0.08,2.88-0.08c1.84,0,3.68,0.1,5.5,0.3c8.42,0.79,15.56,7.14,17.77,15.78
			c0.03,0.14,0,0.27-0.09,0.4c-0.06,0.08-0.19,0.21-0.42,0.21H69.61c0.3,1.9-0.14,3.83-1.24,5.44h18.07c1.86,0,3.58-0.85,4.72-2.32
			C92.28,78.38,92.66,76.53,92.21,74.76z"/>
	</g>
	<g>
		<g>
			<path class="st0" d="M48.87,25.77c-1.42-8.8-8.76-15.53-17.58-15.53c-9.83,0-17.83,8.37-17.83,18.66c0,10.29,8,18.66,17.83,18.66
				c7.16,0,13.35-4.44,16.18-10.83c1.07-2.39,1.66-5.04,1.66-7.84C49.12,27.83,49.04,26.78,48.87,25.77z M31.29,42.12
				c-6.83,0-12.39-5.93-12.39-13.22c0-7.28,5.56-13.22,12.39-13.22c6.83,0,12.39,5.93,12.39,13.22
				C43.68,36.19,38.12,42.12,31.29,42.12z"/>
		</g>
	</g>
	<g>
		<path class="st0" d="M62.4,74.37c-1.34-5.22-3.99-9.81-7.54-13.42c-1.49-1.52-3.14-2.86-4.91-4c-3.58-2.3-7.67-3.77-12.02-4.18
			c-0.47-0.05-0.95-0.09-1.42-0.13c-3.44-0.29-6.94-0.29-10.42,0c-0.47,0.04-0.94,0.09-1.41,0.13c-11.65,1.18-21.49,9.86-24.49,21.6
			c-0.16,0.61-0.22,1.23-0.18,1.83c0.04,0.93,0.29,1.83,0.74,2.65c0.16,0.3,0.34,0.59,0.56,0.86c1.2,1.55,3.02,2.44,4.98,2.44h50.02
			c1.96,0,3.77-0.89,4.98-2.43c0.22-0.28,0.4-0.57,0.57-0.87c0.37-0.67,0.6-1.39,0.68-2.14c0.03-0.17,0.05-0.35,0.05-0.53
			C62.62,75.59,62.56,74.97,62.4,74.37z M56.98,76.38c-0.1,0.12-0.31,0.33-0.68,0.33H6.28c-0.37,0-0.58-0.21-0.68-0.33
			c-0.11-0.14-0.22-0.37-0.15-0.67c2.44-9.53,10.39-16.57,19.78-17.53c2.02-0.21,4.06-0.32,6.08-0.32c2.04,0,4.06,0.11,6.07,0.33
			c2.53,0.23,4.96,0.93,7.2,2c1.76,0.83,3.4,1.9,4.9,3.18c3.64,3.09,6.37,7.38,7.64,12.34C57.2,76.01,57.09,76.24,56.98,76.38z"/>
	</g>
</g>
</svg>
