<svg version="1.1" id="Layer_1" xmlns="http://www.w3.org/2000/svg" xmlns:xlink="http://www.w3.org/1999/xlink" x="0px" y="0px"
	 viewBox="0 0 99.2 99.3" style="enable-background:new 0 0 99.2 99.3;" xml:space="preserve">
<g>
	<g>
		<path class="st0" d="M49.5,98.8c-27,0-49-22-49-49s22-49,49-49s49,22,49,49S76.5,98.8,49.5,98.8z M49.5,7.2
			C26,7.2,6.9,26.3,6.9,49.8S26,92.4,49.5,92.4s42.6-19.1,42.6-42.6S73,7.2,49.5,7.2z"/>
	</g>
	<g>
		<path class="st0" d="M35.8,94.2h-4.6c-1.8,0-3.2-1.4-3.2-3.2c0-1.8,1.4-3.2,3.2-3.2h0.2c-7.3-24.7-7.3-51.4,0-76h-0.2
			c-1.8,0-3.2-1.4-3.2-3.2s1.4-3.2,3.2-3.2h4.6c1,0,2,0.5,2.6,1.3c0.6,0.8,0.8,1.9,0.4,2.9c-8.7,25.9-8.7,54.5,0,80.4
			c0.3,1,0.2,2-0.4,2.9C37.7,93.7,36.8,94.2,35.8,94.2z"/>
	</g>
	<g>
		<path class="st0" d="M63.2,94.2c-0.3,0-0.7-0.1-1-0.2c-1.7-0.6-2.6-2.4-2-4c8.7-25.9,8.7-54.5,0-80.4c-0.6-1.7,0.3-3.5,2-4
			c1.7-0.6,3.5,0.3,4,2c9.1,27.2,9.1,57.2,0,84.4C65.8,93.4,64.6,94.2,63.2,94.2z"/>
	</g>
	<g>
		<path class="st0" d="M49.5,73.4c-12.8,0-25.7-1.8-38-5.5v0.2c0,1.8-1.4,3.2-3.2,3.2s-3.2-1.4-3.2-3.2v-4.6c0-1,0.5-2,1.3-2.6
			c0.8-0.6,1.9-0.8,2.9-0.4c25.9,8.7,54.5,8.7,80.4,0c1-0.3,2-0.2,2.9,0.4c0.8,0.6,1.3,1.6,1.3,2.6v4.6c0,1.8-1.4,3.2-3.2,3.2
			c-1.8,0-3.2-1.4-3.2-3.2v-0.2C75.2,71.6,62.3,73.4,49.5,73.4z"/>
	</g>
	<g>
		<path class="st0" d="M90.7,39.3c-0.3,0-0.7-0.1-1-0.2c-25.9-8.7-54.5-8.7-80.4,0c-1.7,0.6-3.5-0.3-4-2c-0.6-1.7,0.3-3.5,2-4
			c27.2-9.1,57.2-9.1,84.4,0c1.7,0.6,2.6,2.4,2,4C93.3,38.4,92,39.3,90.7,39.3z"/>
	</g>
</g>
</svg>
