<svg version="1.1" id="Layer_1" xmlns="http://www.w3.org/2000/svg" xmlns:xlink="http://www.w3.org/1999/xlink" x="0px" y="0px"
	 viewBox="0 0 94.29 94.29" style="enable-background:new 0 0 94.29 94.29;" xml:space="preserve">
<g>
	<g>
		<path class="st0" d="M47.48,0.81c-25.6,0-46.42,20.83-46.42,46.43c0,25.6,20.82,46.42,46.42,46.42c25.6,0,46.43-20.82,46.43-46.42
			C93.91,21.64,73.08,0.81,47.48,0.81z M47.48,86.66c-21.74,0-39.42-17.68-39.42-39.42c0-21.74,17.68-39.43,39.42-39.43
			c21.74,0,39.43,17.69,39.43,39.43C86.91,68.98,69.22,86.66,47.48,86.66z"/>
	</g>
	<g>
		<path class="st0" d="M62.11,56.91c1.36,1.37,1.36,3.58,0,4.95c-0.69,0.68-1.58,1.03-2.48,1.03c-0.89,0-1.79-0.35-2.47-1.03
			l-9.67-9.67l-9.68,9.67c-0.68,0.68-1.58,1.03-2.47,1.03c-0.9,0-1.79-0.35-2.48-1.03c-1.37-1.37-1.37-3.58,0-4.95l9.67-9.67
			l-9.67-9.67c-1.37-1.37-1.37-3.59,0-4.95c1.37-1.37,3.58-1.37,4.95,0l9.68,9.67l9.67-9.67c1.36-1.37,3.58-1.37,4.95,0
			c1.36,1.36,1.36,3.58,0,4.95l-9.67,9.67L62.11,56.91z"/>
	</g>
</g>
</svg>
