<svg version="1.1" id="Layer_1" xmlns="http://www.w3.org/2000/svg" xmlns:xlink="http://www.w3.org/1999/xlink" x="0px" y="0px"
	 viewBox="0 0 100 100" style="enable-background:new 0 0 100 100;" xml:space="preserve">
<g>
	<g>
		<path class="st0" d="M11.6,99.3c-2.8,0-5.6-1.1-7.7-3.2c-4.3-4.3-4.3-11.2,0-15.4L80.7,3.9c4.3-4.3,11.2-4.3,15.4,0
			c4.3,4.3,4.3,11.2,0,15.4L19.3,96.1C17.2,98.2,14.4,99.3,11.6,99.3z"/>
	</g>
	<g>
		<path class="st0" d="M88.4,99.3c-2.8,0-5.6-1.1-7.7-3.2L3.9,19.3c-4.3-4.3-4.3-11.2,0-15.4c4.3-4.3,11.2-4.3,15.4,0l76.8,76.8
			c4.3,4.3,4.3,11.2,0,15.4C94,98.2,91.2,99.3,88.4,99.3z"/>
	</g>
</g>
</svg>
